<?xml version="1.0" encoding="UTF-8"?>
<!-- Generated by Pixelmator Pro 3.7 -->
<svg width="4096" height="4096" viewBox="0 0 4096 4096" xmlns="http://www.w3.org/2000/svg">
    <g id="g1">
        <g id="g2">
            <g id="--3">
                <path id="path1" fill="#4161a6" fill-rule="evenodd" stroke="none" d="M 742.253296 2741.590332 C 742.253296 2809.586914 687.131165 2864.708984 619.134705 2864.708984 L 320.118561 2864.708984 C 252.12207 2864.708984 197 2809.586914 197 2741.590332 L 197 1352.068115 C 197 1284.071533 252.12207 1228.949463 320.118561 1228.949463 L 619.134705 1228.949463 C 687.131165 1228.949463 742.253296 1284.071533 742.253296 1352.068115 L 742.253296 1918.409912 C 741.134827 1918.381348 740.012817 1918.366943 738.887451 1918.366943 C 667.321411 1918.366943 609.305664 1976.382568 609.305664 2047.94873 C 609.305664 2119.514648 667.321411 2177.530273 738.887451 2177.530273 C 740.012817 2177.530273 741.134827 2177.516113 742.253296 2177.487549 L 742.253296 2741.590332 Z"/>
                <g id="-">
                    <path id="Circle--2" fill="#4161a6" fill-rule="evenodd" stroke="none" d="M 738.887451 1961.560791 C 691.176758 1961.560791 652.499634 2000.238037 652.499634 2047.94873 C 652.499634 2095.65918 691.176758 2134.336426 738.887451 2134.336426 C 786.598145 2134.336426 825.27533 2095.65918 825.27533 2047.94873 C 825.27533 2000.238037 786.598145 1961.560791 738.887451 1961.560791 Z"/>
                </g>
            </g>
            <g id="--4">
                <g id="g3">
                    <path id="path2" fill="#5681bd" fill-rule="evenodd" stroke="none" d="M 1795.231445 1962.907227 C 1747.520752 1962.907227 1708.843506 2001.584229 1708.843506 2049.294922 C 1708.843506 2097.005615 1747.520752 2135.682861 1795.231445 2135.682861 C 1842.942139 2135.682861 1881.619263 2097.005615 1881.619263 2049.294922 C 1881.619263 2001.584229 1842.942139 1962.907227 1795.231445 1962.907227 Z"/>
                </g>
                <g id="--2">
                    <path id="path3" fill="#5681bd" fill-rule="evenodd" stroke="none" d="M 1675.478516 2864.708984 C 1743.475098 2864.708984 1798.597046 2809.586914 1798.597046 2741.590332 L 1798.597046 2178.833984 C 1797.478638 2178.862305 1796.356689 2178.876709 1795.231445 2178.876709 C 1723.665405 2178.876709 1665.649536 2120.86084 1665.649536 2049.294922 C 1665.649536 1977.729004 1723.665405 1919.713135 1795.231445 1919.713135 C 1796.356689 1919.713135 1797.478638 1919.727539 1798.597046 1919.756104 L 1798.597046 1352.068115 C 1798.597046 1284.071533 1743.475098 1228.949463 1675.478516 1228.949463 L 1376.462524 1228.949463 C 1308.466064 1228.949463 1253.343994 1284.071533 1253.343994 1352.068115 L 1253.343994 1924.334961 C 1322.805786 1926.72876 1378.381958 1983.793457 1378.381958 2053.838867 C 1378.381958 2123.883789 1322.805786 2180.94873 1253.343994 2183.342285 L 1253.343994 2741.590332 C 1253.343994 2809.586914 1308.466064 2864.708984 1376.462524 2864.708984 L 1675.478516 2864.708984 Z"/>
                    <path id="path4" fill="#5681bd" fill-rule="evenodd" stroke="none" d="M 1248.800171 1967.450928 C 1201.089478 1967.450928 1162.412354 2006.12793 1162.412354 2053.838867 C 1162.412354 2101.549316 1201.089478 2140.226563 1248.800171 2140.226563 C 1296.510864 2140.226563 1335.187988 2101.549316 1335.187988 2053.838867 C 1335.187988 2006.12793 1296.510864 1967.450928 1248.800171 1967.450928 Z"/>
                </g>
            </g>
            <g id="--5">
                <g id="g4">
                    <path id="path5" fill="#5dbbc1" fill-rule="evenodd" stroke="none" d="M 2847.368164 1965.094971 C 2799.657471 1965.094971 2760.980225 2003.771973 2760.980225 2051.482666 C 2760.980225 2099.193359 2799.657471 2137.870605 2847.368164 2137.870605 C 2895.078857 2137.870605 2933.755859 2099.193359 2933.755859 2051.482666 C 2933.755859 2003.771973 2895.078857 1965.094971 2847.368164 1965.094971 Z"/>
                </g>
                <g id="g5">
                    <path id="path6" fill="#5dbbc1" fill-rule="evenodd" stroke="none" d="M 2727.615479 2867.906494 C 2795.611816 2867.906494 2850.733887 2812.784424 2850.733887 2744.788086 L 2850.733887 2181.021484 C 2849.615479 2181.050293 2848.493408 2181.064453 2847.368164 2181.064453 C 2775.802002 2181.064453 2717.786377 2123.048828 2717.786377 2051.482666 C 2717.786377 1979.916748 2775.802002 1921.900879 2847.368164 1921.900879 C 2848.493408 1921.900879 2849.615479 1921.915283 2850.733887 1921.943848 L 2850.733887 1355.265381 C 2850.733887 1287.268799 2795.611816 1232.146729 2727.615479 1232.146729 L 2428.599121 1232.146729 C 2360.602539 1232.146729 2305.480469 1287.268799 2305.480469 1355.265381 L 2305.480469 1921.979004 C 2374.942383 1924.372559 2430.518799 1981.4375 2430.518799 2051.482666 C 2430.518799 2121.527832 2374.942383 2178.592773 2305.480469 2180.986328 L 2305.480469 2744.788086 C 2305.480469 2812.784424 2360.602539 2867.906494 2428.599121 2867.906494 L 2727.615479 2867.906494 Z"/>
                    <path id="path7" fill="#5dbbc1" fill-rule="evenodd" stroke="none" d="M 2300.937012 1965.094971 C 2253.226318 1965.094971 2214.549072 2003.771973 2214.549072 2051.482666 C 2214.549072 2099.193359 2253.226318 2137.870605 2300.937012 2137.870605 C 2348.647705 2137.870605 2387.324707 2099.193359 2387.324707 2051.482666 C 2387.324707 2003.771973 2348.647705 1965.094971 2300.937012 1965.094971 Z"/>
                </g>
            </g>
            <g id="--6">
                <g id="g6">
                    <path id="path8" fill="#8bc9c5" fill-rule="evenodd" stroke="none" d="M 3899 2742.263672 C 3899 2810.260254 3843.87793 2865.382324 3775.881348 2865.382324 L 3476.865479 2865.382324 C 3408.868896 2865.382324 3353.746826 2810.260254 3353.746826 2742.263672 L 3353.746826 2177.530273 C 3425.312744 2177.530273 3483.328613 2119.514648 3483.328613 2047.94873 C 3483.328613 1976.382568 3425.312744 1918.366943 3353.746826 1918.366943 L 3353.746826 1352.741211 C 3353.746826 1284.744629 3408.868896 1229.622559 3476.865479 1229.622559 L 3775.881348 1229.622559 C 3843.87793 1229.622559 3899 1284.744629 3899 1352.741211 L 3899 2742.263672 Z"/>
                    <path id="path9" fill="#8bc9c5" fill-rule="evenodd" stroke="none" d="M 3353.746826 1961.560791 C 3306.036133 1961.560791 3267.358887 2000.238037 3267.358887 2047.94873 C 3267.358887 2095.65918 3306.036133 2134.336426 3353.746826 2134.336426 C 3401.45752 2134.336426 3440.134766 2095.65918 3440.134766 2047.94873 C 3440.134766 2000.238037 3401.45752 1961.560791 3353.746826 1961.560791 Z"/>
                </g>
            </g>
            <g id="g7">
                <linearGradient id="linearGradient1" x1="737.709453" y1="2046.829299" x2="1251.156218" y2="2046.829299" gradientUnits="userSpaceOnUse" gradientTransform="matrix(1 -1e-06 1e-06 1 -0.002001 0.000972)">
                    <stop offset="0" stop-color="#4161a6" stop-opacity="1"/>
                    <stop offset="1" stop-color="#5681bd" stop-opacity="1"/>
                </linearGradient>
                <path id="path10" fill="none" stroke="url(#linearGradient1)" stroke-width="34.696575" d="M 737.709473 2046.82959 L 1251.15625 2046.829102"/>
                <linearGradient id="linearGradient2" x1="1796.409415" y1="2046.829299" x2="2309.85618" y2="2046.829299" gradientUnits="userSpaceOnUse" gradientTransform="matrix(1 -1e-06 1e-06 1 -0.002001 0.002007)">
                    <stop offset="0" stop-color="#5681bd" stop-opacity="1"/>
                    <stop offset="1" stop-color="#5dbbc1" stop-opacity="1"/>
                </linearGradient>
                <path id="path11" fill="none" stroke="url(#linearGradient2)" stroke-width="34.696575" d="M 1796.409424 2046.82959 L 2309.856201 2046.829102"/>
                <linearGradient id="linearGradient3" x1="2846.021824" y1="2051.373076" x2="3359.46859" y2="2051.373076" gradientUnits="userSpaceOnUse" gradientTransform="matrix(1 -1e-06 1e-06 1 -0.002006 0.003033)">
                    <stop offset="0" stop-color="#5dbbc1" stop-opacity="1"/>
                    <stop offset="1" stop-color="#8bc9c5" stop-opacity="1"/>
                </linearGradient>
                <path id="path12" fill="none" stroke="url(#linearGradient3)" stroke-width="34.696575" d="M 2846.021729 2051.373291 L 3359.468506 2051.372803"/>
            </g>
        </g>
        <text id="F--L-" xml:space="preserve" x="716" y="3464" font-family="PingFang SC" font-size="249.924048" font-weight="600" fill="#4161a6">F  L  O  W  G  R  A  M</text>
    </g>
</svg>
